<mxfile host="Electron" modified="2024-05-23T06:25:12.703Z" agent="Mozilla/5.0 (X11; Linux x86_64) AppleWebKit/537.36 (KHTML, like Gecko) draw.io/24.4.6 Chrome/124.0.6367.207 Electron/30.0.6 Safari/537.36" etag="QqNN0vhsd92w2QvLqSDm" version="24.4.6" type="device">
  <diagram name="Dominio" id="xJ_MT0gq0PF-rE7TgY-N">
    <mxGraphModel dx="1114" dy="663" grid="1" gridSize="10" guides="1" tooltips="1" connect="1" arrows="1" fold="1" page="1" pageScale="1" pageWidth="827" pageHeight="1169" math="0" shadow="0">
      <root>
        <mxCell id="0" />
        <mxCell id="1" parent="0" />
      </root>
    </mxGraphModel>
  </diagram>
</mxfile>
